<svg width="320" height="32" viewBox="0 0 320 32" fill="none" xmlns="http://www.w3.org/2000/svg">
<g filter="url(#filter0_d)">
<path d="M28.5801 7.53125C28.5801 6.35938 28.4531 5.43164 28.1992 4.74805C27.9453 4.06445 27.5254 3.54688 26.9395 3.19531C26.3535 2.84375 25.582 2.61914 24.625 2.52148C23.6777 2.42383 22.501 2.375 21.0947 2.375H14.5176C13.2676 2.375 12.2129 2.41406 11.3535 2.49219C10.5039 2.56055 9.80078 2.70703 9.24414 2.93164C8.6875 3.15625 8.25781 3.47852 7.95508 3.89844C7.65234 4.31836 7.43262 4.875 7.2959 5.56836C7.15918 6.26172 7.08105 7.11621 7.06152 8.13184C7.04199 9.1377 7.03223 10.3438 7.03223 11.75C7.03223 13.1562 7.04199 14.3672 7.06152 15.3828C7.09082 16.3887 7.17383 17.2383 7.31055 17.9316C7.44727 18.625 7.66211 19.1816 7.95508 19.6016C8.25781 20.0215 8.6875 20.3438 9.24414 20.5684C9.80078 20.793 10.5039 20.9443 11.3535 21.0225C12.2129 21.0908 13.2676 21.125 14.5176 21.125H21.0947C22.1885 21.125 23.1309 21.0957 23.9219 21.0371C24.7129 20.9785 25.3867 20.8711 25.9434 20.7148C26.5 20.5586 26.9492 20.3438 27.291 20.0703C27.6328 19.7969 27.8965 19.4551 28.082 19.0449C28.2773 18.625 28.4092 18.127 28.4775 17.5508C28.5459 16.9648 28.5801 16.2812 28.5801 15.5H31.3926C31.3926 16.4375 31.334 17.2871 31.2168 18.0488C31.0996 18.8008 30.8896 19.4746 30.5869 20.0703C30.2939 20.6562 29.8984 21.1641 29.4004 21.5938C28.9023 22.0234 28.2725 22.3799 27.5107 22.6631C26.749 22.9365 25.8408 23.1367 24.7861 23.2637C23.7314 23.4004 22.501 23.4688 21.0947 23.4688H14.5176C12.7988 23.4688 11.3486 23.3613 10.167 23.1465C8.99512 22.9414 8.02832 22.6289 7.2666 22.209C6.50488 21.7793 5.91406 21.2422 5.49414 20.5977C5.08398 19.9531 4.78125 19.1963 4.58594 18.3271C4.40039 17.458 4.29297 16.4766 4.26367 15.3828C4.23438 14.2891 4.21973 13.0781 4.21973 11.75C4.21973 10.4219 4.23438 9.21094 4.26367 8.11719C4.29297 7.02344 4.40039 6.04199 4.58594 5.17285C4.78125 4.30371 5.08398 3.54688 5.49414 2.90234C5.91406 2.25781 6.50488 1.72559 7.2666 1.30566C8.02832 0.875977 8.99512 0.558594 10.167 0.353516C11.3486 0.138672 12.7988 0.03125 14.5176 0.03125H21.0947C22.501 0.03125 23.7314 0.0996094 24.7861 0.236328C25.8408 0.363281 26.749 0.563477 27.5107 0.836914C28.2725 1.10059 28.9023 1.4375 29.4004 1.84766C29.8984 2.25781 30.2939 2.74121 30.5869 3.29785C30.8896 3.85449 31.0996 4.48438 31.2168 5.1875C31.334 5.89062 31.3926 6.67188 31.3926 7.53125H28.5801ZM54.8447 10.3438C55.3135 10.3438 55.7236 10.3047 56.0752 10.2266C56.4268 10.1484 56.7148 9.99707 56.9395 9.77246C57.1738 9.53809 57.3496 9.20605 57.4668 8.77637C57.584 8.34668 57.6426 7.78027 57.6426 7.07715C57.6426 6.2959 57.584 5.63672 57.4668 5.09961C57.3496 4.5625 57.1543 4.11816 56.8809 3.7666C56.6074 3.41504 56.2363 3.14648 55.7676 2.96094C55.3086 2.77539 54.7324 2.63867 54.0391 2.55078C53.3457 2.46289 52.5254 2.41406 51.5781 2.4043C50.6309 2.38477 49.5322 2.375 48.2822 2.375C46.5635 2.375 45.1133 2.39941 43.9316 2.44824C42.7598 2.4873 41.7881 2.57031 41.0166 2.69727C40.2549 2.81445 39.6689 2.98047 39.2588 3.19531C38.8486 3.41016 38.5459 3.69336 38.3506 4.04492C38.165 4.38672 38.0527 4.80664 38.0137 5.30469C37.9844 5.80273 37.9697 6.38867 37.9697 7.0625H35.1572C35.1572 5.88086 35.2842 4.88477 35.5381 4.07422C35.8018 3.26367 36.1826 2.59961 36.6807 2.08203C37.1885 1.55469 37.8135 1.1543 38.5557 0.880859C39.2979 0.597656 40.1523 0.397461 41.1191 0.280273C42.0957 0.15332 43.1797 0.0800781 44.3711 0.0605469C45.5723 0.0410156 46.876 0.03125 48.2822 0.03125C49.6885 0.03125 50.9629 0.0556641 52.1055 0.104492C53.2578 0.143555 54.2832 0.241211 55.1816 0.397461C56.0898 0.553711 56.876 0.783203 57.54 1.08594C58.2041 1.38867 58.751 1.80371 59.1807 2.33105C59.6201 2.84863 59.9424 3.49316 60.1475 4.26465C60.3623 5.03613 60.4697 5.96875 60.4697 7.0625C60.4697 7.76562 60.4209 8.36133 60.3232 8.84961C60.2354 9.33789 60.0938 9.75293 59.8984 10.0947C59.7129 10.4268 59.4736 10.7051 59.1807 10.9297C58.8877 11.1445 58.5361 11.3398 58.126 11.5156C58.5361 11.6914 58.8877 11.916 59.1807 12.1895C59.4736 12.4629 59.7129 12.7998 59.8984 13.2002C60.0938 13.5908 60.2354 14.0547 60.3232 14.5918C60.4209 15.1191 60.4697 15.7344 60.4697 16.4375C60.4697 17.5312 60.3623 18.4639 60.1475 19.2354C59.9424 20.0068 59.6201 20.6562 59.1807 21.1836C58.751 21.7012 58.2041 22.1113 57.54 22.4141C56.876 22.7168 56.0898 22.9463 55.1816 23.1025C54.2832 23.2588 53.2578 23.3564 52.1055 23.3955C50.9629 23.4443 49.6885 23.4688 48.2822 23.4688C46.876 23.4688 45.5723 23.459 44.3711 23.4395C43.1797 23.4199 42.0957 23.3418 41.1191 23.2051C40.1523 23.0684 39.2979 22.8535 38.5557 22.5605C37.8135 22.2578 37.1885 21.8281 36.6807 21.2715C36.1826 20.7148 35.8018 20.0068 35.5381 19.1475C35.2842 18.2881 35.1572 17.2285 35.1572 15.9688H37.9697C37.9697 16.7109 37.9893 17.3555 38.0283 17.9023C38.0674 18.4395 38.1797 18.8984 38.3652 19.2793C38.5508 19.6602 38.8486 19.9727 39.2588 20.2168C39.6689 20.4512 40.2549 20.6367 41.0166 20.7734C41.7881 20.9102 42.7598 21.0029 43.9316 21.0518C45.1133 21.1006 46.5635 21.125 48.2822 21.125C49.5322 21.125 50.6309 21.1201 51.5781 21.1104C52.5254 21.0908 53.3457 21.0371 54.0391 20.9492C54.7324 20.8613 55.3086 20.7246 55.7676 20.5391C56.2363 20.3535 56.6074 20.085 56.8809 19.7334C57.1543 19.3818 57.3496 18.9375 57.4668 18.4004C57.584 17.8633 57.6426 17.2041 57.6426 16.4229C57.6426 15.6025 57.584 14.9482 57.4668 14.46C57.3496 13.9619 57.1738 13.5811 56.9395 13.3174C56.7148 13.0537 56.4268 12.8828 56.0752 12.8047C55.7236 12.7266 55.3135 12.6875 54.8447 12.6875H44.5322V10.3438H54.8447ZM90.9385 23H88.126V18.7812C88.126 18.0977 88.1113 17.5117 88.082 17.0234C88.0625 16.5254 87.9795 16.1006 87.833 15.749C87.6963 15.3975 87.4766 15.1143 87.1738 14.8994C86.8711 14.6846 86.4414 14.5186 85.8848 14.4014C85.3281 14.2842 84.6201 14.2061 83.7607 14.167C82.9111 14.1182 81.8613 14.0938 80.6113 14.0938H67.9697V23H65.1572V0.5H81.0801C82.7988 0.5 84.2441 0.563477 85.416 0.69043C86.5977 0.807617 87.5693 0.988281 88.3311 1.23242C89.1025 1.47656 89.6934 1.7793 90.1035 2.14062C90.5234 2.50195 90.8262 2.92676 91.0117 3.41504C91.207 3.90332 91.3193 4.4502 91.3486 5.05566C91.3877 5.66113 91.4072 6.33008 91.4072 7.0625C91.4072 8 91.3389 8.8252 91.2021 9.53809C91.0752 10.2412 90.8555 10.8418 90.543 11.3398C90.2305 11.8379 89.8154 12.2383 89.2979 12.541C88.7803 12.834 88.1309 13.0391 87.3496 13.1562C88.1309 13.2734 88.7559 13.4785 89.2246 13.7715C89.6934 14.0645 90.0547 14.4453 90.3086 14.9141C90.5625 15.3828 90.7285 15.9395 90.8066 16.584C90.8945 17.2285 90.9385 17.9609 90.9385 18.7812V23ZM67.9697 11.75H81.0801C82.3301 11.75 83.3799 11.7305 84.2295 11.6914C85.0889 11.6426 85.7969 11.5596 86.3535 11.4424C86.9102 11.3252 87.3398 11.1592 87.6426 10.9443C87.9453 10.7295 88.165 10.4463 88.3018 10.0947C88.4482 9.74316 88.5312 9.32324 88.5508 8.83496C88.5801 8.33691 88.5947 7.74609 88.5947 7.0625C88.5947 6.42773 88.5801 5.88086 88.5508 5.42188C88.5312 4.96289 88.4482 4.57715 88.3018 4.26465C88.165 3.95215 87.9453 3.70313 87.6426 3.51758C87.3398 3.33203 86.9102 3.19043 86.3535 3.09277C85.7969 2.98535 85.0889 2.91699 84.2295 2.8877C83.3799 2.8584 82.3301 2.84375 81.0801 2.84375H67.9697V11.75ZM144.845 23V13.625C144.845 12.5801 144.767 11.7012 144.61 10.9883C144.454 10.2656 144.142 9.68457 143.673 9.24512C143.204 8.80566 142.54 8.48828 141.681 8.29297C140.821 8.09766 139.688 8 138.282 8C136.759 8 135.509 8.1123 134.532 8.33691C133.565 8.56152 132.804 8.87891 132.247 9.28906C131.69 9.69922 131.305 10.1924 131.09 10.7686C130.885 11.3447 130.782 11.9844 130.782 12.6875V23H127.97V6.125H130.782V8.9375C130.987 8.45898 131.28 8.04883 131.661 7.70703C132.042 7.35547 132.472 7.05762 132.95 6.81348C133.429 6.56934 133.946 6.37402 134.503 6.22754C135.06 6.07129 135.616 5.9541 136.173 5.87598C136.729 5.78809 137.267 5.72949 137.784 5.7002C138.312 5.6709 138.79 5.65625 139.22 5.65625C140.47 5.65625 141.544 5.73438 142.442 5.89062C143.351 6.04688 144.117 6.27637 144.742 6.5791C145.377 6.88184 145.885 7.25781 146.266 7.70703C146.646 8.15625 146.939 8.67871 147.145 9.27441C147.359 9.86035 147.501 10.5195 147.569 11.252C147.638 11.9746 147.672 12.7656 147.672 13.625L147.657 23H144.845ZM168.312 23V13.625C168.312 12.5801 168.233 11.7012 168.077 10.9883C167.921 10.2656 167.608 9.68457 167.14 9.24512C166.671 8.80566 166.007 8.48828 165.147 8.29297C164.288 8.09766 163.155 8 161.749 8C160.226 8 158.976 8.1123 157.999 8.33691C157.032 8.56152 156.271 8.87891 155.714 9.28906C155.157 9.69922 154.771 10.1924 154.557 10.7686C154.352 11.3447 154.249 11.9844 154.249 12.6875V23H151.437V6.125H154.249V8.9375C154.454 8.45898 154.747 8.04883 155.128 7.70703C155.509 7.35547 155.938 7.05762 156.417 6.81348C156.896 6.56934 157.413 6.37402 157.97 6.22754C158.526 6.07129 159.083 5.9541 159.64 5.87598C160.196 5.78809 160.733 5.72949 161.251 5.7002C161.778 5.6709 162.257 5.65625 162.687 5.65625C163.937 5.65625 165.011 5.73438 165.909 5.89062C166.817 6.04688 167.584 6.27637 168.209 6.5791C168.844 6.88184 169.352 7.25781 169.732 7.70703C170.113 8.15625 170.406 8.67871 170.611 9.27441C170.826 9.86035 170.968 10.5195 171.036 11.252C171.104 11.9746 171.139 12.7656 171.139 13.625L171.124 23H168.312ZM174.435 14.4453C174.435 12.7168 174.62 11.2861 174.991 10.1533C175.362 9.02051 175.958 8.12207 176.778 7.45801C177.599 6.79395 178.663 6.33008 179.972 6.06641C181.28 5.79297 182.872 5.65625 184.747 5.65625C186.622 5.65625 188.214 5.79297 189.522 6.06641C190.831 6.33008 191.896 6.79395 192.716 7.45801C193.536 8.12207 194.132 9.02051 194.503 10.1533C194.874 11.2861 195.06 12.7168 195.06 14.4453C195.06 16.1738 194.874 17.6094 194.503 18.752C194.132 19.8945 193.536 20.8027 192.716 21.4766C191.896 22.1504 190.831 22.6289 189.522 22.9121C188.214 23.1855 186.622 23.3223 184.747 23.3223C182.872 23.3223 181.28 23.1855 179.972 22.9121C178.663 22.6289 177.599 22.1504 176.778 21.4766C175.958 20.8027 175.362 19.8945 174.991 18.752C174.62 17.6094 174.435 16.1738 174.435 14.4453ZM177.247 14.4453C177.247 15.3828 177.281 16.1982 177.35 16.8916C177.418 17.585 177.545 18.1807 177.73 18.6787C177.926 19.1768 178.194 19.582 178.536 19.8945C178.878 20.207 179.327 20.4561 179.884 20.6416C180.44 20.8271 181.114 20.9541 181.905 21.0225C182.706 21.0908 183.653 21.125 184.747 21.125C185.685 21.125 186.52 21.1055 187.252 21.0664C187.994 21.0176 188.639 20.915 189.186 20.7588C189.742 20.6025 190.216 20.3828 190.606 20.0996C190.997 19.8066 191.31 19.4111 191.544 18.9131C191.788 18.415 191.964 17.8047 192.071 17.082C192.188 16.3496 192.247 15.4707 192.247 14.4453C192.247 13.4395 192.188 12.585 192.071 11.8818C191.964 11.1689 191.788 10.5732 191.544 10.0947C191.31 9.61621 190.997 9.24023 190.606 8.9668C190.216 8.68359 189.742 8.47363 189.186 8.33691C188.639 8.19043 187.994 8.09766 187.252 8.05859C186.52 8.01953 185.685 8 184.747 8C183.81 8 182.97 8.01953 182.228 8.05859C181.495 8.09766 180.851 8.19043 180.294 8.33691C179.747 8.47363 179.278 8.68359 178.888 8.9668C178.497 9.24023 178.18 9.61621 177.936 10.0947C177.701 10.5732 177.525 11.1689 177.408 11.8818C177.301 12.585 177.247 13.4395 177.247 14.4453ZM205.372 23H209.122L218.028 6.125H214.747L207.247 21.125L199.747 6.125H196.466L205.372 23ZM236.705 20.6855C236.676 20.8027 236.456 21.0957 236.046 21.5645C235.753 21.916 235.362 22.2285 234.874 22.502C234.386 22.7656 233.731 22.9707 232.911 23.1172C232.101 23.2734 231.031 23.3516 229.703 23.3516C227.936 23.3516 226.427 23.2588 225.177 23.0732C223.927 22.8975 222.906 22.624 222.115 22.2529C221.324 21.8721 220.743 21.3887 220.372 20.8027C220.011 20.2168 219.83 19.5186 219.83 18.708C219.83 17.8584 219.928 17.1406 220.123 16.5547C220.328 15.959 220.621 15.4609 221.002 15.0605C221.393 14.6602 221.861 14.3477 222.408 14.123C222.955 13.8984 223.575 13.7275 224.269 13.6104C224.972 13.4932 225.738 13.4199 226.568 13.3906C227.398 13.3613 228.282 13.3467 229.22 13.3467C230.558 13.3467 231.676 13.4053 232.574 13.5225C233.473 13.6299 234.205 13.7715 234.771 13.9473C235.348 14.1133 235.782 14.2939 236.075 14.4893C236.368 14.6846 236.578 14.8652 236.705 15.0312C236.705 13.9375 236.656 13.0049 236.559 12.2334C236.471 11.4619 236.319 10.8174 236.104 10.2998C235.899 9.78223 235.631 9.37207 235.299 9.06934C234.967 8.75684 234.557 8.52246 234.068 8.36621C233.59 8.20996 233.028 8.1123 232.384 8.07324C231.739 8.02441 231.002 8 230.172 8C228.883 8 227.813 8.03418 226.964 8.10254C226.114 8.16113 225.44 8.2832 224.942 8.46875C224.444 8.6543 224.093 8.91309 223.888 9.24512C223.683 9.56738 223.58 9.99219 223.58 10.5195H220.768C220.768 9.63086 220.924 8.87891 221.236 8.26367C221.559 7.64844 222.086 7.15039 222.818 6.76953C223.561 6.37891 224.532 6.0957 225.733 5.91992C226.935 5.74414 228.414 5.65625 230.172 5.65625C231.891 5.65625 233.346 5.79785 234.537 6.08105C235.729 6.36426 236.69 6.8623 237.423 7.5752C238.165 8.28809 238.697 9.25 239.02 10.4609C239.352 11.6621 239.518 13.1855 239.518 15.0312V23H236.705V20.6855ZM230.172 21.125C231.412 21.125 232.447 21.0664 233.277 20.9492C234.117 20.832 234.791 20.6562 235.299 20.4219C235.807 20.1875 236.168 19.8945 236.383 19.543C236.598 19.1914 236.705 18.7812 236.705 18.3125C236.705 17.8438 236.578 17.4482 236.324 17.126C236.08 16.7939 235.665 16.5254 235.079 16.3203C234.503 16.1152 233.736 15.9688 232.779 15.8809C231.822 15.7832 230.641 15.7344 229.234 15.7344C227.828 15.7344 226.69 15.7588 225.821 15.8076C224.962 15.8564 224.298 15.9688 223.829 16.1445C223.36 16.3203 223.043 16.5791 222.877 16.9209C222.721 17.2627 222.643 17.7266 222.643 18.3125C222.643 18.8984 222.726 19.377 222.892 19.748C223.067 20.1094 223.419 20.3926 223.946 20.5977C224.474 20.8027 225.23 20.9443 226.217 21.0225C227.213 21.0908 228.531 21.125 230.172 21.125ZM259.688 15.5C259.688 16.9355 259.571 18.1367 259.337 19.1035C259.103 20.0605 258.707 20.8271 258.15 21.4033C257.604 21.9795 256.881 22.3896 255.982 22.6338C255.084 22.8779 253.976 23 252.657 23C251.378 23 250.304 22.9023 249.435 22.707C248.565 22.5117 247.862 22.1797 247.325 21.7109C246.788 21.2422 246.402 20.6172 246.168 19.8359C245.934 19.0547 245.816 18.0781 245.816 16.9062V8.43945H242.345V6.125H245.816V1.51074H248.629V6.125H259.22V8.43945H248.629V16.9062C248.629 17.8438 248.697 18.5664 248.834 19.0742C248.98 19.582 249.21 19.9531 249.522 20.1875C249.835 20.4219 250.245 20.5586 250.753 20.5977C251.271 20.6367 251.9 20.6562 252.643 20.6562C253.229 20.6562 253.751 20.6465 254.21 20.627C254.679 20.6074 255.084 20.5488 255.426 20.4512C255.777 20.3438 256.075 20.1875 256.319 19.9824C256.563 19.7676 256.759 19.4697 256.905 19.0889C257.062 18.708 257.174 18.2295 257.242 17.6533C257.311 17.0674 257.345 16.3496 257.345 15.5H259.688ZM264.376 6.125H267.188V23H264.376V6.125ZM267.188 3.3125H264.376V0.5H267.188V3.3125ZM271.407 14.4453C271.407 12.7168 271.593 11.2861 271.964 10.1533C272.335 9.02051 272.931 8.12207 273.751 7.45801C274.571 6.79395 275.636 6.33008 276.944 6.06641C278.253 5.79297 279.845 5.65625 281.72 5.65625C283.595 5.65625 285.187 5.79297 286.495 6.06641C287.804 6.33008 288.868 6.79395 289.688 7.45801C290.509 8.12207 291.104 9.02051 291.476 10.1533C291.847 11.2861 292.032 12.7168 292.032 14.4453C292.032 16.1738 291.847 17.6094 291.476 18.752C291.104 19.8945 290.509 20.8027 289.688 21.4766C288.868 22.1504 287.804 22.6289 286.495 22.9121C285.187 23.1855 283.595 23.3223 281.72 23.3223C279.845 23.3223 278.253 23.1855 276.944 22.9121C275.636 22.6289 274.571 22.1504 273.751 21.4766C272.931 20.8027 272.335 19.8945 271.964 18.752C271.593 17.6094 271.407 16.1738 271.407 14.4453ZM274.22 14.4453C274.22 15.3828 274.254 16.1982 274.322 16.8916C274.391 17.585 274.518 18.1807 274.703 18.6787C274.898 19.1768 275.167 19.582 275.509 19.8945C275.851 20.207 276.3 20.4561 276.856 20.6416C277.413 20.8271 278.087 20.9541 278.878 21.0225C279.679 21.0908 280.626 21.125 281.72 21.125C282.657 21.125 283.492 21.1055 284.225 21.0664C284.967 21.0176 285.611 20.915 286.158 20.7588C286.715 20.6025 287.188 20.3828 287.579 20.0996C287.97 19.8066 288.282 19.4111 288.517 18.9131C288.761 18.415 288.937 17.8047 289.044 17.082C289.161 16.3496 289.22 15.4707 289.22 14.4453C289.22 13.4395 289.161 12.585 289.044 11.8818C288.937 11.1689 288.761 10.5732 288.517 10.0947C288.282 9.61621 287.97 9.24023 287.579 8.9668C287.188 8.68359 286.715 8.47363 286.158 8.33691C285.611 8.19043 284.967 8.09766 284.225 8.05859C283.492 8.01953 282.657 8 281.72 8C280.782 8 279.942 8.01953 279.2 8.05859C278.468 8.09766 277.823 8.19043 277.267 8.33691C276.72 8.47363 276.251 8.68359 275.86 8.9668C275.47 9.24023 275.152 9.61621 274.908 10.0947C274.674 10.5732 274.498 11.1689 274.381 11.8818C274.273 12.585 274.22 13.4395 274.22 14.4453ZM312.188 23V13.625C312.188 12.5801 312.11 11.7012 311.954 10.9883C311.798 10.2656 311.485 9.68457 311.017 9.24512C310.548 8.80566 309.884 8.48828 309.024 8.29297C308.165 8.09766 307.032 8 305.626 8C304.103 8 302.853 8.1123 301.876 8.33691C300.909 8.56152 300.147 8.87891 299.591 9.28906C299.034 9.69922 298.648 10.1924 298.434 10.7686C298.229 11.3447 298.126 11.9844 298.126 12.6875V23H295.313V6.125H298.126V8.9375C298.331 8.45898 298.624 8.04883 299.005 7.70703C299.386 7.35547 299.815 7.05762 300.294 6.81348C300.772 6.56934 301.29 6.37402 301.847 6.22754C302.403 6.07129 302.96 5.9541 303.517 5.87598C304.073 5.78809 304.61 5.72949 305.128 5.7002C305.655 5.6709 306.134 5.65625 306.563 5.65625C307.813 5.65625 308.888 5.73438 309.786 5.89062C310.694 6.04688 311.461 6.27637 312.086 6.5791C312.721 6.88184 313.229 7.25781 313.609 7.70703C313.99 8.15625 314.283 8.67871 314.488 9.27441C314.703 9.86035 314.845 10.5195 314.913 11.252C314.981 11.9746 315.016 12.7656 315.016 13.625L315.001 23H312.188Z" fill="white" style="mix-blend-mode:luminosity"/>
</g>
<defs>
<filter id="filter0_d" x="0.219727" y="0.03125" width="318.796" height="31.4375" filterUnits="userSpaceOnUse" color-interpolation-filters="sRGB">
<feFlood flood-opacity="0" result="BackgroundImageFix"/>
<feColorMatrix in="SourceAlpha" type="matrix" values="0 0 0 0 0 0 0 0 0 0 0 0 0 0 0 0 0 0 127 0"/>
<feOffset dy="4"/>
<feGaussianBlur stdDeviation="2"/>
<feColorMatrix type="matrix" values="0 0 0 0 0 0 0 0 0 0 0 0 0 0 0 0 0 0 0.25 0"/>
<feBlend mode="normal" in2="BackgroundImageFix" result="effect1_dropShadow"/>
<feBlend mode="normal" in="SourceGraphic" in2="effect1_dropShadow" result="shape"/>
</filter>
</defs>
</svg>
